# xmcd
# 
# Track frame offsets:
#     182
#     15500
#     28002
#     42085
#     52187
#     65885
#     79725
#     89055
#     104127
#     114850
#     128860
#     145735
#     158962
#     172152
#     182910
#     195607
#     207572
#     219190
# 
# Disc length: 3086
# 
# Revision: 2
# Processed by: cddbd v1.5.2PL0 Copyright (c) Steve Scherf et al.
# Submitted via: fre:ac v1.0.31
# 
DISCID=0f0c0c12
DTITLE=Columbia Blues - The Soul Of O.V. Wright
DYEAR=0
DGENRE=Blues
TTITLE0=You're Gonna Make Me Cry
TTITLE1=I'd Rather Be Blind, Crippled And Crazy
TTITLE2=When You Took Your Love From Me
TTITLE3=Gonna Forget About You
TTITLE4=Everybody Knows (The River Song)
TTITLE5=Don't Let My Baby Ride
TTITLE6=I Don't Want To Sit Down
TTITLE7=Born All Over
TTITLE8=Ace Of Spades
TTITLE9=Eight Men, Four Women
TTITLE10=A Nickel And A Nail
TTITLE11=Heartaches, Heartaches
TTITLE12=Drowning On Dry Land
TTITLE13=Monkey Dog
TTITLE14=He's My Son (Just The Same)
TTITLE15=I've Been Searching
TTITLE16=Motherless Child
TTITLE17=I'm Going Home (To Live With God)
EXTD=
EXTT0=
EXTT1=
EXTT2=
EXTT3=
EXTT4=
EXTT5=
EXTT6=
EXTT7=
EXTT8=
EXTT9=
EXTT10=
EXTT11=
EXTT12=
EXTT13=
EXTT14=
EXTT15=
EXTT16=
EXTT17=
PLAYORDER=
